PathFileType	4	(X/Y/Z)	21_coords_data.trc
DataRate	CameraRate	NumFrames	NumMarkers	Units	OrigDataRate	OrigDataStartFrame	OrigNumFrames
30.0	30.0	6	21	m	30.0	38	65
Frame#	Time	THUMB_TIP	THUMB_IP	THUMB_MCP	THUMB_CMC	INDEX_TIP	INDEX_DIP	INDEX_PIP	INDEX_MCP	MIDDLE_TIP	MIDDLE_DIP	MIDDLE_PIP	MIDDLE_MCP	RING_TIP	RING_DIP	RING_PIP	RING_MCP	PINKY_TIP	PINKY_DIP	PINKY_PIP	PINKY_MCP	WRIST
X1	Y1	Z1	X2	Y2	Z2	X3	Y3	Z3	X4	Y4	Z4	X5	Y5	Z5	X6	Y6	Z6	X7	Y7	Z7	X8	Y8	Z8	X9	Y9	Z9	X10	Y10	Z10	X11	Y11	Z11	X12	Y12	Z12	X13	Y13	Z13	X14	Y14	Z14	X15	Y15	Z15	X16	Y16	Z16	X17	Y17	Z17	X18	Y18	Z18	X19	Y19	Z19	X20	Y20	Z20	X21	Y21	Z21
36	1.233333333333328	0.5454238011130196	-0.0051165376499879844	-0.1302604224624513	0.522535207593422	-0.00695241674044178	-0.12939912422149724	0.49488765846926597	-0.011295086092017126	-0.11577656020695604	0.4773219778458383	-0.022626211372231086	-0.07636916922353987	0.5181470141215538	-0.008090954050258059	-0.115145443435343	0.5300894122834726	0.001677938236046117	-0.1246295285067025	0.5319770656072935	0.026344953771329283	-0.1290999806662908	0.49911027319383716	0.03357133285308411	-0.10300037346967683	0.5200354405831212	-0.017762303685682324	-0.10536464367632392	0.5334344575039114	-0.005994045428801442	-0.1085228778594925	0.5443605299944454	0.020991922203017377	-0.10986005432728774	0.5106870887577842	0.03440515744857764	-0.08373856132768326	0.5239926035097043	-0.015417805881727031	-0.09237076628782986	0.5388022071347427	-0.005476755866010818	-0.09498823931620676	0.5510762445784501	0.01615016095983357	-0.09364494022870706	0.5217602434102985	0.028014149776122266	-0.06845488904027319	0.5317039489553775	-0.020607131865054695	-0.0853603193281201	0.5471432426092402	-0.013663628700025132	-0.08789329687776826	0.5535928516708877	0.004675866639439308	-0.07996376519893139	0.5267836450538776	0.012616657294022948	-0.057180136529499714	0.4622830810018609	-0.023011742144276925	-0.051989820119430985
37	1.2666666666666608	0.5414658312265753	-0.005433619863832173	-0.13898572268245835	0.5193818765597943	-0.007558995520610012	-0.13300393995545023	0.4932124991767114	-0.01182527187522564	-0.11670110052644755	0.47713854400723943	-0.022487568624438015	-0.07647880082539193	0.5273428058034628	-0.010319115073372243	-0.1201398074464945	0.5361723816473379	0.003441860028220445	-0.12792916908083918	0.5337637146225052	0.028422867396294293	-0.12939798732681967	0.5004347342525689	0.03250078740074058	-0.10320284025836929	0.5297580746059098	-0.018403668901278092	-0.10937458737009775	0.5408520761445101	-0.004198555220617517	-0.11114599223094729	0.5470715577555008	0.024221376080290735	-0.10940383743237009	0.5117350046013694	0.03352856298571372	-0.08369679162596183	0.5326055712207942	-0.016724808360120913	-0.09568699953167054	0.5455363856627847	-0.00419834004716424	-0.096625950793082	0.5536237447419087	0.019014679127279832	-0.09263466742401372	0.5224731294268687	0.027250695939921465	-0.06821074418149814	0.5394960475685523	-0.02118239818534362	-0.08760311170175394	0.5535150754552296	-0.011362126056793986	-0.08743248804046688	0.5557599150391237	0.007114460292132696	-0.07771711511230617	0.5270543704787458	0.012217852029635323	-0.056484344325954394	0.4622830810018609	-0.023011742144276925	-0.051989820119430985
38	1.299999999999994	0.5360337600243554	-0.0056752576839159685	-0.14709866338797273	0.5157969436595008	-0.00812194139035094	-0.1364927686941802	0.49145228926942075	-0.012401466135223527	-0.11757601763630621	0.476933642807012	-0.02240483122379533	-0.0766000296457241	0.539550346169746	-0.01095737369970795	-0.12709559657210695	0.5430521552746628	0.006224182771017217	-0.13162676090768416	0.5357275321965052	0.030182586710096104	-0.12953999056697985	0.5020874228700074	0.031102090048924502	-0.10344145321119741	0.5419564601119976	-0.017487013334302026	-0.11402470627991712	0.549646350821875	-0.0010900425823892057	-0.11395448497930571	0.5498148605158861	0.02756965228223851	-0.10866269466321671	0.5130576927040772	0.032333152769909224	-0.08371539824539853	0.5440172356565635	-0.017020424971127213	-0.09963430694633457	0.5536630614594458	-0.0018610015992992501	-0.09816804380005784	0.5562178452392864	0.02193038830364158	-0.09126711449129699	0.5234022878594186	0.02617509202270729	-0.06803260313026444	0.5497754790919189	-0.02088279691358985	-0.08979447980374583	0.5606292043346051	-0.00815866018126954	-0.08614852413019541	0.5579527927524186	0.009439905973970708	-0.07501572082993146	0.5274736162470551	0.011513526112786998	-0.055842735927345455	0.462283081001861	-0.023011742144276925	-0.051989820119430985
39	1.3333333333333275	0.5296517578724267	-0.005667205690906729	-0.15396837403957142	0.5118786020460979	-0.00850533384139196	-0.13968341829674658	0.48962722457188057	-0.012931407552365104	-0.11837365358652696	0.4767123689991981	-0.022356627049562205	-0.07672918525078742	0.5532771315699747	-0.007416354896901289	-0.1354016251520333	0.5499080220410383	0.010378123073303103	-0.13532642708068077	0.5377475728999441	0.03160587472338039	-0.12953713786960258	0.5039678835741526	0.029417670425694542	-0.10369568967093168	0.5560108712392532	-0.013794750177797632	-0.11879944070436332	0.5590648302910008	0.003911208976872471	-0.11652516180251349	0.5523466355034428	0.03084962559655824	-0.10765966019117357	0.5145743852694312	0.030854063254055597	-0.08379745129160987	0.5581074661039997	-0.01477889380259123	-0.1035038255115161	0.5626231623796429	0.0021349500109907327	-0.09919913335110608	0.5586490780848736	0.02475723525674256	-0.08957526493565532	0.524502462109238	0.024811747183459354	-0.06792517302217105	0.5628832364951765	-0.018521475624989847	-0.09137233333711392	0.5677903478431443	-0.00397005739203149	-0.08381081988885708	0.5599868075805914	0.01151963527448363	-0.07197924351596291	0.5280262928942553	0.010507730306546947	-0.05529437011757099	0.4622830810018609	-0.023011742144276925	-0.051989820119430985
40	1.3666666666666607	0.5230670381292211	-0.005334457882185006	-0.15934292848034343	0.507921089794491	-0.008621380827492198	-0.14237836581007973	0.4878891193584841	-0.013353247633578591	-0.11902992695476433	0.47649904844650304	-0.022366105414849624	-0.07685262643381319	0.5650951890997429	0.0004967187060290756	-0.14265060387237077	0.5559416434085076	0.015528827343168072	-0.13837879966340705	0.5397995745567756	0.032559138990691516	-0.12935594360924257	0.5060176581313365	0.02748425462685511	-0.10392635915887571	0.5706911103404804	-0.006606629736191083	-0.12287320674101104	0.5679070175031571	0.010659427614280625	-0.11816873114394527	0.5545666977235915	0.03375030820418179	-0.1064104722693558	0.5162474038106424	0.029108624319258092	-0.08391081881145862	0.5735681125193461	-0.008647904009647989	-0.10628675927806325	0.571217537755227	0.007754443160555735	-0.09918480140812358	0.5607848011761906	0.02719381013872213	-0.08763278868476615	0.5257316218140033	0.023181735444407603	-0.06788693577207633	0.5770797231483774	-0.012646268525525861	-0.0905696989891217	0.5741576231835784	0.0008082278820478184	-0.08039925857514224	0.5617375687566376	0.013118078887358053	-0.06877936893457803	0.5287001449766209	0.009194403682534213	-0.05485037565198064	0.4622830810018608	-0.023011742144276925	-0.051989820119430985
41	1.3999999999999937	0.5167489449603052	-0.004611994976325362	-0.16331786064342302	0.5041308780262362	-0.008439755698138707	-0.14449944852380203	0.48624999803867774	-0.013606718948843688	-0.1195515704249257	0.47630567514995825	-0.02239333414573108	-0.07696288841119447	0.5732422967117183	0.009861730011287984	-0.14741387960503483	0.5606397534890257	0.020853634142211197	-0.14046017930255145	0.5417971495423026	0.0329746445580118	-0.12905635468065435	0.5081386444674225	0.02538776925964692	-0.10409277213865264	0.5835182815964395	0.0036234228890862363	-0.12519298948612345	0.575070178060868	0.01821912331794029	-0.11859033277511577	0.5564097987379255	0.036037349803464735	-0.10503634448994836	0.5179960552635032	0.027168421806917697	-0.0840155369537629	0.5869067098529261	0.0008901638090451636	-0.10662071790849476	0.5782625162039341	0.014129869221137015	-0.09796114997702415	0.5625762820299803	0.029008665350480523	-0.08560220737737917	0.5270408956514046	0.021317160328851448	-0.06791611398659342	0.5885348566741098	-0.0042874294291518344	-0.08666502708810264	0.5791168863027436	0.005501683510320876	-0.0762498889736889	0.5631554082743906	0.01408205326143519	-0.06564703591026438	0.5294592809446423	0.007607505747682319	-0.054532419926365094	0.4622830810018609	-0.023011742144276925	-0.051989820119430985
